<!DOCTYPE svg PUBLIC "-//W3C//DTD SVG 1.1//EN" "http://www.w3.org/Graphics/SVG/1.1/DTD/svg11.dtd">
<svg xmlns="http://www.w3.org/2000/svg" xmlns:xlink="http://www.w3.org/1999/xlink" xmlns:jfreesvg="http://www.jfree.org/jfreesvg/svg" width="800px" height="600px" text-rendering="auto" shape-rendering="auto">
<defs><clipPath id="916822750988048clip-0"><path d="M 0 0 L 800 0 L 800 600 L 0 600 L 0 0 Z "/></clipPath>
<clipPath id="916822750988048clip-1"><path d="M 37 29 L 37 530 L 792 530 L 792 29 Z "/></clipPath>
</defs>
<rect x="0" y="0" width="800" height="600" style="fill: rgb(255,255,255); fill-opacity: 1.0" transform="matrix(1,0,0,1,0,0)" clip-path="url(#916822750988048clip-0)"/><g transform="matrix(1,0,0,1,0,0)"><text x="197.2" y="19.1" style="fill: rgb(0,0,0); fill-opacity: 1.0; font-family: sans-serif; font-size: 18px; font-weight: bold;" clip-path="url(#916822750988048clip-0)">Multiple Eval vs. Single Compile + Multiple Eval</text></g><rect x="295.14" y="577.91" width="209.72" height="21.09" style="fill: rgb(255,255,255); fill-opacity: 1.0" transform="matrix(1,0,0,1,0,0)" clip-path="url(#916822750988048clip-0)"/><g style="stroke-width: 3.0;stroke: rgb(230,69,69);stroke-opacity: 0.8;stroke-linecap: square;shape-rendering:geometricPrecision;; fill: none" transform="matrix(1,0,0,1,0,0)" clip-path="url(#916822750988048clip-0)"><path d="M 298.14 588.45 L 312.14 588.45"/></g><g transform="matrix(1,0,0,1,0,0)"><text x="316.14" y="592.97" style="fill: rgb(0,0,0); fill-opacity: 1.0; font-family: sans-serif; font-size: 12px;" clip-path="url(#916822750988048clip-0)">Multi Eval</text></g><g style="stroke-width: 3.0;stroke: rgb(69,230,69);stroke-opacity: 0.8;stroke-linecap: square;shape-rendering:geometricPrecision;; fill: none" transform="matrix(1,0,0,1,0,0)" clip-path="url(#916822750988048clip-0)"><path d="M 374.15 588.45 L 388.15 588.45"/></g><g transform="matrix(1,0,0,1,0,0)"><text x="392.15" y="592.97" style="fill: rgb(0,0,0); fill-opacity: 1.0; font-family: sans-serif; font-size: 12px;" clip-path="url(#916822750988048clip-0)">Compile + Multi Eval</text></g><rect x="37" y="29" width="755" height="501" style="fill: rgb(255,255,255); fill-opacity: 1.0" transform="matrix(1,0,0,1,0,0)" clip-path="url(#916822750988048clip-0)"/><line x1="37" y1="530" x2="792" y2="530" style="stroke-width: 0.5;stroke: rgb(128,128,128);stroke-opacity: 1.0;stroke-linecap: square;shape-rendering:crispEdges;" transform="matrix(1,0,0,1,0,0)" clip-path="url(#916822750988048clip-0)"/><g transform="matrix(1,0,0,1,0,0)"><text x="28.66" y="546.06" style="fill: rgb(51,51,51); fill-opacity: 1.0; font-family: sans-serif; font-size: 12px;" clip-path="url(#916822750988048clip-0)">0.0</text></g><line x1="37" y1="532" x2="37" y2="530" style="stroke-width: 0.5;stroke: rgb(128,128,128);stroke-opacity: 1.0;stroke-linecap: square;shape-rendering:crispEdges;" transform="matrix(1,0,0,1,0,0)" clip-path="url(#916822750988048clip-0)"/><g transform="matrix(1,0,0,1,0,0)"><text x="64.61" y="546.06" style="fill: rgb(51,51,51); fill-opacity: 1.0; font-family: sans-serif; font-size: 12px;" clip-path="url(#916822750988048clip-0)">0.5</text></g><line x1="72.95" y1="532" x2="72.95" y2="530" style="stroke-width: 0.5;stroke: rgb(128,128,128);stroke-opacity: 1.0;stroke-linecap: square;shape-rendering:crispEdges;" transform="matrix(1,0,0,1,0,0)" clip-path="url(#916822750988048clip-0)"/><g transform="matrix(1,0,0,1,0,0)"><text x="100.56" y="546.06" style="fill: rgb(51,51,51); fill-opacity: 1.0; font-family: sans-serif; font-size: 12px;" clip-path="url(#916822750988048clip-0)">1.0</text></g><line x1="108.9" y1="532" x2="108.9" y2="530" style="stroke-width: 0.5;stroke: rgb(128,128,128);stroke-opacity: 1.0;stroke-linecap: square;shape-rendering:crispEdges;" transform="matrix(1,0,0,1,0,0)" clip-path="url(#916822750988048clip-0)"/><g transform="matrix(1,0,0,1,0,0)"><text x="136.52" y="546.06" style="fill: rgb(51,51,51); fill-opacity: 1.0; font-family: sans-serif; font-size: 12px;" clip-path="url(#916822750988048clip-0)">1.5</text></g><line x1="144.86" y1="532" x2="144.86" y2="530" style="stroke-width: 0.5;stroke: rgb(128,128,128);stroke-opacity: 1.0;stroke-linecap: square;shape-rendering:crispEdges;" transform="matrix(1,0,0,1,0,0)" clip-path="url(#916822750988048clip-0)"/><g transform="matrix(1,0,0,1,0,0)"><text x="172.47" y="546.06" style="fill: rgb(51,51,51); fill-opacity: 1.0; font-family: sans-serif; font-size: 12px;" clip-path="url(#916822750988048clip-0)">2.0</text></g><line x1="180.81" y1="532" x2="180.81" y2="530" style="stroke-width: 0.5;stroke: rgb(128,128,128);stroke-opacity: 1.0;stroke-linecap: square;shape-rendering:crispEdges;" transform="matrix(1,0,0,1,0,0)" clip-path="url(#916822750988048clip-0)"/><g transform="matrix(1,0,0,1,0,0)"><text x="208.42" y="546.06" style="fill: rgb(51,51,51); fill-opacity: 1.0; font-family: sans-serif; font-size: 12px;" clip-path="url(#916822750988048clip-0)">2.5</text></g><line x1="216.76" y1="532" x2="216.76" y2="530" style="stroke-width: 0.5;stroke: rgb(128,128,128);stroke-opacity: 1.0;stroke-linecap: square;shape-rendering:crispEdges;" transform="matrix(1,0,0,1,0,0)" clip-path="url(#916822750988048clip-0)"/><g transform="matrix(1,0,0,1,0,0)"><text x="244.37" y="546.06" style="fill: rgb(51,51,51); fill-opacity: 1.0; font-family: sans-serif; font-size: 12px;" clip-path="url(#916822750988048clip-0)">3.0</text></g><line x1="252.71" y1="532" x2="252.71" y2="530" style="stroke-width: 0.5;stroke: rgb(128,128,128);stroke-opacity: 1.0;stroke-linecap: square;shape-rendering:crispEdges;" transform="matrix(1,0,0,1,0,0)" clip-path="url(#916822750988048clip-0)"/><g transform="matrix(1,0,0,1,0,0)"><text x="280.33" y="546.06" style="fill: rgb(51,51,51); fill-opacity: 1.0; font-family: sans-serif; font-size: 12px;" clip-path="url(#916822750988048clip-0)">3.5</text></g><line x1="288.67" y1="532" x2="288.67" y2="530" style="stroke-width: 0.5;stroke: rgb(128,128,128);stroke-opacity: 1.0;stroke-linecap: square;shape-rendering:crispEdges;" transform="matrix(1,0,0,1,0,0)" clip-path="url(#916822750988048clip-0)"/><g transform="matrix(1,0,0,1,0,0)"><text x="316.28" y="546.06" style="fill: rgb(51,51,51); fill-opacity: 1.0; font-family: sans-serif; font-size: 12px;" clip-path="url(#916822750988048clip-0)">4.0</text></g><line x1="324.62" y1="532" x2="324.62" y2="530" style="stroke-width: 0.5;stroke: rgb(128,128,128);stroke-opacity: 1.0;stroke-linecap: square;shape-rendering:crispEdges;" transform="matrix(1,0,0,1,0,0)" clip-path="url(#916822750988048clip-0)"/><g transform="matrix(1,0,0,1,0,0)"><text x="352.23" y="546.06" style="fill: rgb(51,51,51); fill-opacity: 1.0; font-family: sans-serif; font-size: 12px;" clip-path="url(#916822750988048clip-0)">4.5</text></g><line x1="360.57" y1="532" x2="360.57" y2="530" style="stroke-width: 0.5;stroke: rgb(128,128,128);stroke-opacity: 1.0;stroke-linecap: square;shape-rendering:crispEdges;" transform="matrix(1,0,0,1,0,0)" clip-path="url(#916822750988048clip-0)"/><g transform="matrix(1,0,0,1,0,0)"><text x="388.18" y="546.06" style="fill: rgb(51,51,51); fill-opacity: 1.0; font-family: sans-serif; font-size: 12px;" clip-path="url(#916822750988048clip-0)">5.0</text></g><line x1="396.52" y1="532" x2="396.52" y2="530" style="stroke-width: 0.5;stroke: rgb(128,128,128);stroke-opacity: 1.0;stroke-linecap: square;shape-rendering:crispEdges;" transform="matrix(1,0,0,1,0,0)" clip-path="url(#916822750988048clip-0)"/><g transform="matrix(1,0,0,1,0,0)"><text x="424.14" y="546.06" style="fill: rgb(51,51,51); fill-opacity: 1.0; font-family: sans-serif; font-size: 12px;" clip-path="url(#916822750988048clip-0)">5.5</text></g><line x1="432.48" y1="532" x2="432.48" y2="530" style="stroke-width: 0.5;stroke: rgb(128,128,128);stroke-opacity: 1.0;stroke-linecap: square;shape-rendering:crispEdges;" transform="matrix(1,0,0,1,0,0)" clip-path="url(#916822750988048clip-0)"/><g transform="matrix(1,0,0,1,0,0)"><text x="460.09" y="546.06" style="fill: rgb(51,51,51); fill-opacity: 1.0; font-family: sans-serif; font-size: 12px;" clip-path="url(#916822750988048clip-0)">6.0</text></g><line x1="468.43" y1="532" x2="468.43" y2="530" style="stroke-width: 0.5;stroke: rgb(128,128,128);stroke-opacity: 1.0;stroke-linecap: square;shape-rendering:crispEdges;" transform="matrix(1,0,0,1,0,0)" clip-path="url(#916822750988048clip-0)"/><g transform="matrix(1,0,0,1,0,0)"><text x="496.04" y="546.06" style="fill: rgb(51,51,51); fill-opacity: 1.0; font-family: sans-serif; font-size: 12px;" clip-path="url(#916822750988048clip-0)">6.5</text></g><line x1="504.38" y1="532" x2="504.38" y2="530" style="stroke-width: 0.5;stroke: rgb(128,128,128);stroke-opacity: 1.0;stroke-linecap: square;shape-rendering:crispEdges;" transform="matrix(1,0,0,1,0,0)" clip-path="url(#916822750988048clip-0)"/><g transform="matrix(1,0,0,1,0,0)"><text x="531.99" y="546.06" style="fill: rgb(51,51,51); fill-opacity: 1.0; font-family: sans-serif; font-size: 12px;" clip-path="url(#916822750988048clip-0)">7.0</text></g><line x1="540.33" y1="532" x2="540.33" y2="530" style="stroke-width: 0.5;stroke: rgb(128,128,128);stroke-opacity: 1.0;stroke-linecap: square;shape-rendering:crispEdges;" transform="matrix(1,0,0,1,0,0)" clip-path="url(#916822750988048clip-0)"/><g transform="matrix(1,0,0,1,0,0)"><text x="567.94" y="546.06" style="fill: rgb(51,51,51); fill-opacity: 1.0; font-family: sans-serif; font-size: 12px;" clip-path="url(#916822750988048clip-0)">7.5</text></g><line x1="576.29" y1="532" x2="576.29" y2="530" style="stroke-width: 0.5;stroke: rgb(128,128,128);stroke-opacity: 1.0;stroke-linecap: square;shape-rendering:crispEdges;" transform="matrix(1,0,0,1,0,0)" clip-path="url(#916822750988048clip-0)"/><g transform="matrix(1,0,0,1,0,0)"><text x="603.9" y="546.06" style="fill: rgb(51,51,51); fill-opacity: 1.0; font-family: sans-serif; font-size: 12px;" clip-path="url(#916822750988048clip-0)">8.0</text></g><line x1="612.24" y1="532" x2="612.24" y2="530" style="stroke-width: 0.5;stroke: rgb(128,128,128);stroke-opacity: 1.0;stroke-linecap: square;shape-rendering:crispEdges;" transform="matrix(1,0,0,1,0,0)" clip-path="url(#916822750988048clip-0)"/><g transform="matrix(1,0,0,1,0,0)"><text x="639.85" y="546.06" style="fill: rgb(51,51,51); fill-opacity: 1.0; font-family: sans-serif; font-size: 12px;" clip-path="url(#916822750988048clip-0)">8.5</text></g><line x1="648.19" y1="532" x2="648.19" y2="530" style="stroke-width: 0.5;stroke: rgb(128,128,128);stroke-opacity: 1.0;stroke-linecap: square;shape-rendering:crispEdges;" transform="matrix(1,0,0,1,0,0)" clip-path="url(#916822750988048clip-0)"/><g transform="matrix(1,0,0,1,0,0)"><text x="675.8" y="546.06" style="fill: rgb(51,51,51); fill-opacity: 1.0; font-family: sans-serif; font-size: 12px;" clip-path="url(#916822750988048clip-0)">9.0</text></g><line x1="684.14" y1="532" x2="684.14" y2="530" style="stroke-width: 0.5;stroke: rgb(128,128,128);stroke-opacity: 1.0;stroke-linecap: square;shape-rendering:crispEdges;" transform="matrix(1,0,0,1,0,0)" clip-path="url(#916822750988048clip-0)"/><g transform="matrix(1,0,0,1,0,0)"><text x="711.75" y="546.06" style="fill: rgb(51,51,51); fill-opacity: 1.0; font-family: sans-serif; font-size: 12px;" clip-path="url(#916822750988048clip-0)">9.5</text></g><line x1="720.1" y1="532" x2="720.1" y2="530" style="stroke-width: 0.5;stroke: rgb(128,128,128);stroke-opacity: 1.0;stroke-linecap: square;shape-rendering:crispEdges;" transform="matrix(1,0,0,1,0,0)" clip-path="url(#916822750988048clip-0)"/><g transform="matrix(1,0,0,1,0,0)"><text x="744.37" y="546.06" style="fill: rgb(51,51,51); fill-opacity: 1.0; font-family: sans-serif; font-size: 12px;" clip-path="url(#916822750988048clip-0)">10.0</text></g><line x1="756.05" y1="532" x2="756.05" y2="530" style="stroke-width: 0.5;stroke: rgb(128,128,128);stroke-opacity: 1.0;stroke-linecap: square;shape-rendering:crispEdges;" transform="matrix(1,0,0,1,0,0)" clip-path="url(#916822750988048clip-0)"/><g transform="matrix(1,0,0,1,0,0)"><text x="780.32" y="546.06" style="fill: rgb(51,51,51); fill-opacity: 1.0; font-family: sans-serif; font-size: 12px;" clip-path="url(#916822750988048clip-0)">10.5</text></g><line x1="792" y1="532" x2="792" y2="530" style="stroke-width: 0.5;stroke: rgb(128,128,128);stroke-opacity: 1.0;stroke-linecap: square;shape-rendering:crispEdges;" transform="matrix(1,0,0,1,0,0)" clip-path="url(#916822750988048clip-0)"/><g transform="matrix(1,0,0,1,0,0)"><text x="410.22" y="566.17" style="fill: rgb(51,51,51); fill-opacity: 1.0; font-family: sans-serif; font-size: 14px; font-weight: bold;" clip-path="url(#916822750988048clip-0)">n</text></g><line x1="37" y1="29" x2="37" y2="530" style="stroke-width: 0.5;stroke: rgb(128,128,128);stroke-opacity: 1.0;stroke-linecap: square;shape-rendering:crispEdges;" transform="matrix(1,0,0,1,0,0)" clip-path="url(#916822750988048clip-0)"/><g transform="matrix(1,0,0,1,0,0)"><text x="24.33" y="534.52" style="fill: rgb(51,51,51); fill-opacity: 1.0; font-family: sans-serif; font-size: 12px;" clip-path="url(#916822750988048clip-0)">0</text></g><line x1="35" y1="530" x2="37" y2="530" style="stroke-width: 0.5;stroke: rgb(128,128,128);stroke-opacity: 1.0;stroke-linecap: square;shape-rendering:crispEdges;" transform="matrix(1,0,0,1,0,0)" clip-path="url(#916822750988048clip-0)"/><g transform="matrix(1,0,0,1,0,0)"><text x="17.65" y="506.3" style="fill: rgb(51,51,51); fill-opacity: 1.0; font-family: sans-serif; font-size: 12px;" clip-path="url(#916822750988048clip-0)">10</text></g><line x1="35" y1="501.78" x2="37" y2="501.78" style="stroke-width: 0.5;stroke: rgb(128,128,128);stroke-opacity: 1.0;stroke-linecap: square;shape-rendering:crispEdges;" transform="matrix(1,0,0,1,0,0)" clip-path="url(#916822750988048clip-0)"/><g transform="matrix(1,0,0,1,0,0)"><text x="17.65" y="478.08" style="fill: rgb(51,51,51); fill-opacity: 1.0; font-family: sans-serif; font-size: 12px;" clip-path="url(#916822750988048clip-0)">20</text></g><line x1="35" y1="473.56" x2="37" y2="473.56" style="stroke-width: 0.5;stroke: rgb(128,128,128);stroke-opacity: 1.0;stroke-linecap: square;shape-rendering:crispEdges;" transform="matrix(1,0,0,1,0,0)" clip-path="url(#916822750988048clip-0)"/><g transform="matrix(1,0,0,1,0,0)"><text x="17.65" y="449.86" style="fill: rgb(51,51,51); fill-opacity: 1.0; font-family: sans-serif; font-size: 12px;" clip-path="url(#916822750988048clip-0)">30</text></g><line x1="35" y1="445.34" x2="37" y2="445.34" style="stroke-width: 0.5;stroke: rgb(128,128,128);stroke-opacity: 1.0;stroke-linecap: square;shape-rendering:crispEdges;" transform="matrix(1,0,0,1,0,0)" clip-path="url(#916822750988048clip-0)"/><g transform="matrix(1,0,0,1,0,0)"><text x="17.65" y="421.64" style="fill: rgb(51,51,51); fill-opacity: 1.0; font-family: sans-serif; font-size: 12px;" clip-path="url(#916822750988048clip-0)">40</text></g><line x1="35" y1="417.12" x2="37" y2="417.12" style="stroke-width: 0.5;stroke: rgb(128,128,128);stroke-opacity: 1.0;stroke-linecap: square;shape-rendering:crispEdges;" transform="matrix(1,0,0,1,0,0)" clip-path="url(#916822750988048clip-0)"/><g transform="matrix(1,0,0,1,0,0)"><text x="17.65" y="393.42" style="fill: rgb(51,51,51); fill-opacity: 1.0; font-family: sans-serif; font-size: 12px;" clip-path="url(#916822750988048clip-0)">50</text></g><line x1="35" y1="388.9" x2="37" y2="388.9" style="stroke-width: 0.5;stroke: rgb(128,128,128);stroke-opacity: 1.0;stroke-linecap: square;shape-rendering:crispEdges;" transform="matrix(1,0,0,1,0,0)" clip-path="url(#916822750988048clip-0)"/><g transform="matrix(1,0,0,1,0,0)"><text x="17.65" y="365.2" style="fill: rgb(51,51,51); fill-opacity: 1.0; font-family: sans-serif; font-size: 12px;" clip-path="url(#916822750988048clip-0)">60</text></g><line x1="35" y1="360.69" x2="37" y2="360.69" style="stroke-width: 0.5;stroke: rgb(128,128,128);stroke-opacity: 1.0;stroke-linecap: square;shape-rendering:crispEdges;" transform="matrix(1,0,0,1,0,0)" clip-path="url(#916822750988048clip-0)"/><g transform="matrix(1,0,0,1,0,0)"><text x="17.65" y="336.98" style="fill: rgb(51,51,51); fill-opacity: 1.0; font-family: sans-serif; font-size: 12px;" clip-path="url(#916822750988048clip-0)">70</text></g><line x1="35" y1="332.47" x2="37" y2="332.47" style="stroke-width: 0.5;stroke: rgb(128,128,128);stroke-opacity: 1.0;stroke-linecap: square;shape-rendering:crispEdges;" transform="matrix(1,0,0,1,0,0)" clip-path="url(#916822750988048clip-0)"/><g transform="matrix(1,0,0,1,0,0)"><text x="17.65" y="308.76" style="fill: rgb(51,51,51); fill-opacity: 1.0; font-family: sans-serif; font-size: 12px;" clip-path="url(#916822750988048clip-0)">80</text></g><line x1="35" y1="304.25" x2="37" y2="304.25" style="stroke-width: 0.5;stroke: rgb(128,128,128);stroke-opacity: 1.0;stroke-linecap: square;shape-rendering:crispEdges;" transform="matrix(1,0,0,1,0,0)" clip-path="url(#916822750988048clip-0)"/><g transform="matrix(1,0,0,1,0,0)"><text x="17.65" y="280.55" style="fill: rgb(51,51,51); fill-opacity: 1.0; font-family: sans-serif; font-size: 12px;" clip-path="url(#916822750988048clip-0)">90</text></g><line x1="35" y1="276.03" x2="37" y2="276.03" style="stroke-width: 0.5;stroke: rgb(128,128,128);stroke-opacity: 1.0;stroke-linecap: square;shape-rendering:crispEdges;" transform="matrix(1,0,0,1,0,0)" clip-path="url(#916822750988048clip-0)"/><g transform="matrix(1,0,0,1,0,0)"><text x="10.98" y="252.33" style="fill: rgb(51,51,51); fill-opacity: 1.0; font-family: sans-serif; font-size: 12px;" clip-path="url(#916822750988048clip-0)">100</text></g><line x1="35" y1="247.81" x2="37" y2="247.81" style="stroke-width: 0.5;stroke: rgb(128,128,128);stroke-opacity: 1.0;stroke-linecap: square;shape-rendering:crispEdges;" transform="matrix(1,0,0,1,0,0)" clip-path="url(#916822750988048clip-0)"/><g transform="matrix(1,0,0,1,0,0)"><text x="10.98" y="224.11" style="fill: rgb(51,51,51); fill-opacity: 1.0; font-family: sans-serif; font-size: 12px;" clip-path="url(#916822750988048clip-0)">110</text></g><line x1="35" y1="219.59" x2="37" y2="219.59" style="stroke-width: 0.5;stroke: rgb(128,128,128);stroke-opacity: 1.0;stroke-linecap: square;shape-rendering:crispEdges;" transform="matrix(1,0,0,1,0,0)" clip-path="url(#916822750988048clip-0)"/><g transform="matrix(1,0,0,1,0,0)"><text x="10.98" y="195.89" style="fill: rgb(51,51,51); fill-opacity: 1.0; font-family: sans-serif; font-size: 12px;" clip-path="url(#916822750988048clip-0)">120</text></g><line x1="35" y1="191.37" x2="37" y2="191.37" style="stroke-width: 0.5;stroke: rgb(128,128,128);stroke-opacity: 1.0;stroke-linecap: square;shape-rendering:crispEdges;" transform="matrix(1,0,0,1,0,0)" clip-path="url(#916822750988048clip-0)"/><g transform="matrix(1,0,0,1,0,0)"><text x="10.98" y="167.67" style="fill: rgb(51,51,51); fill-opacity: 1.0; font-family: sans-serif; font-size: 12px;" clip-path="url(#916822750988048clip-0)">130</text></g><line x1="35" y1="163.15" x2="37" y2="163.15" style="stroke-width: 0.5;stroke: rgb(128,128,128);stroke-opacity: 1.0;stroke-linecap: square;shape-rendering:crispEdges;" transform="matrix(1,0,0,1,0,0)" clip-path="url(#916822750988048clip-0)"/><g transform="matrix(1,0,0,1,0,0)"><text x="10.98" y="139.45" style="fill: rgb(51,51,51); fill-opacity: 1.0; font-family: sans-serif; font-size: 12px;" clip-path="url(#916822750988048clip-0)">140</text></g><line x1="35" y1="134.93" x2="37" y2="134.93" style="stroke-width: 0.5;stroke: rgb(128,128,128);stroke-opacity: 1.0;stroke-linecap: square;shape-rendering:crispEdges;" transform="matrix(1,0,0,1,0,0)" clip-path="url(#916822750988048clip-0)"/><g transform="matrix(1,0,0,1,0,0)"><text x="10.98" y="111.23" style="fill: rgb(51,51,51); fill-opacity: 1.0; font-family: sans-serif; font-size: 12px;" clip-path="url(#916822750988048clip-0)">150</text></g><line x1="35" y1="106.71" x2="37" y2="106.71" style="stroke-width: 0.5;stroke: rgb(128,128,128);stroke-opacity: 1.0;stroke-linecap: square;shape-rendering:crispEdges;" transform="matrix(1,0,0,1,0,0)" clip-path="url(#916822750988048clip-0)"/><g transform="matrix(1,0,0,1,0,0)"><text x="10.98" y="83.01" style="fill: rgb(51,51,51); fill-opacity: 1.0; font-family: sans-serif; font-size: 12px;" clip-path="url(#916822750988048clip-0)">160</text></g><line x1="35" y1="78.49" x2="37" y2="78.49" style="stroke-width: 0.5;stroke: rgb(128,128,128);stroke-opacity: 1.0;stroke-linecap: square;shape-rendering:crispEdges;" transform="matrix(1,0,0,1,0,0)" clip-path="url(#916822750988048clip-0)"/><g transform="matrix(1,0,0,1,0,0)"><text x="10.98" y="54.79" style="fill: rgb(51,51,51); fill-opacity: 1.0; font-family: sans-serif; font-size: 12px;" clip-path="url(#916822750988048clip-0)">170</text></g><line x1="35" y1="50.28" x2="37" y2="50.28" style="stroke-width: 0.5;stroke: rgb(128,128,128);stroke-opacity: 1.0;stroke-linecap: square;shape-rendering:crispEdges;" transform="matrix(1,0,0,1,0,0)" clip-path="url(#916822750988048clip-0)"/><line x1="37" y1="29" x2="37" y2="530" style="stroke-width: 0.5;stroke: rgb(204,204,204);stroke-opacity: 1.0;stroke-linejoin: bevel;stroke-dasharray: 2.0, 2.0;shape-rendering:crispEdges;" transform="matrix(1,0,0,1,0,0)" clip-path="url(#916822750988048clip-1)"/><line x1="72.95" y1="29" x2="72.95" y2="530" style="stroke-width: 0.5;stroke: rgb(204,204,204);stroke-opacity: 1.0;stroke-linejoin: bevel;stroke-dasharray: 2.0, 2.0;shape-rendering:crispEdges;" transform="matrix(1,0,0,1,0,0)" clip-path="url(#916822750988048clip-1)"/><line x1="108.9" y1="29" x2="108.9" y2="530" style="stroke-width: 0.5;stroke: rgb(204,204,204);stroke-opacity: 1.0;stroke-linejoin: bevel;stroke-dasharray: 2.0, 2.0;shape-rendering:crispEdges;" transform="matrix(1,0,0,1,0,0)" clip-path="url(#916822750988048clip-1)"/><line x1="144.86" y1="29" x2="144.86" y2="530" style="stroke-width: 0.5;stroke: rgb(204,204,204);stroke-opacity: 1.0;stroke-linejoin: bevel;stroke-dasharray: 2.0, 2.0;shape-rendering:crispEdges;" transform="matrix(1,0,0,1,0,0)" clip-path="url(#916822750988048clip-1)"/><line x1="180.81" y1="29" x2="180.81" y2="530" style="stroke-width: 0.5;stroke: rgb(204,204,204);stroke-opacity: 1.0;stroke-linejoin: bevel;stroke-dasharray: 2.0, 2.0;shape-rendering:crispEdges;" transform="matrix(1,0,0,1,0,0)" clip-path="url(#916822750988048clip-1)"/><line x1="216.76" y1="29" x2="216.76" y2="530" style="stroke-width: 0.5;stroke: rgb(204,204,204);stroke-opacity: 1.0;stroke-linejoin: bevel;stroke-dasharray: 2.0, 2.0;shape-rendering:crispEdges;" transform="matrix(1,0,0,1,0,0)" clip-path="url(#916822750988048clip-1)"/><line x1="252.71" y1="29" x2="252.71" y2="530" style="stroke-width: 0.5;stroke: rgb(204,204,204);stroke-opacity: 1.0;stroke-linejoin: bevel;stroke-dasharray: 2.0, 2.0;shape-rendering:crispEdges;" transform="matrix(1,0,0,1,0,0)" clip-path="url(#916822750988048clip-1)"/><line x1="288.67" y1="29" x2="288.67" y2="530" style="stroke-width: 0.5;stroke: rgb(204,204,204);stroke-opacity: 1.0;stroke-linejoin: bevel;stroke-dasharray: 2.0, 2.0;shape-rendering:crispEdges;" transform="matrix(1,0,0,1,0,0)" clip-path="url(#916822750988048clip-1)"/><line x1="324.62" y1="29" x2="324.62" y2="530" style="stroke-width: 0.5;stroke: rgb(204,204,204);stroke-opacity: 1.0;stroke-linejoin: bevel;stroke-dasharray: 2.0, 2.0;shape-rendering:crispEdges;" transform="matrix(1,0,0,1,0,0)" clip-path="url(#916822750988048clip-1)"/><line x1="360.57" y1="29" x2="360.57" y2="530" style="stroke-width: 0.5;stroke: rgb(204,204,204);stroke-opacity: 1.0;stroke-linejoin: bevel;stroke-dasharray: 2.0, 2.0;shape-rendering:crispEdges;" transform="matrix(1,0,0,1,0,0)" clip-path="url(#916822750988048clip-1)"/><line x1="396.52" y1="29" x2="396.52" y2="530" style="stroke-width: 0.5;stroke: rgb(204,204,204);stroke-opacity: 1.0;stroke-linejoin: bevel;stroke-dasharray: 2.0, 2.0;shape-rendering:crispEdges;" transform="matrix(1,0,0,1,0,0)" clip-path="url(#916822750988048clip-1)"/><line x1="432.48" y1="29" x2="432.48" y2="530" style="stroke-width: 0.5;stroke: rgb(204,204,204);stroke-opacity: 1.0;stroke-linejoin: bevel;stroke-dasharray: 2.0, 2.0;shape-rendering:crispEdges;" transform="matrix(1,0,0,1,0,0)" clip-path="url(#916822750988048clip-1)"/><line x1="468.43" y1="29" x2="468.43" y2="530" style="stroke-width: 0.5;stroke: rgb(204,204,204);stroke-opacity: 1.0;stroke-linejoin: bevel;stroke-dasharray: 2.0, 2.0;shape-rendering:crispEdges;" transform="matrix(1,0,0,1,0,0)" clip-path="url(#916822750988048clip-1)"/><line x1="504.38" y1="29" x2="504.38" y2="530" style="stroke-width: 0.5;stroke: rgb(204,204,204);stroke-opacity: 1.0;stroke-linejoin: bevel;stroke-dasharray: 2.0, 2.0;shape-rendering:crispEdges;" transform="matrix(1,0,0,1,0,0)" clip-path="url(#916822750988048clip-1)"/><line x1="540.33" y1="29" x2="540.33" y2="530" style="stroke-width: 0.5;stroke: rgb(204,204,204);stroke-opacity: 1.0;stroke-linejoin: bevel;stroke-dasharray: 2.0, 2.0;shape-rendering:crispEdges;" transform="matrix(1,0,0,1,0,0)" clip-path="url(#916822750988048clip-1)"/><line x1="576.29" y1="29" x2="576.29" y2="530" style="stroke-width: 0.5;stroke: rgb(204,204,204);stroke-opacity: 1.0;stroke-linejoin: bevel;stroke-dasharray: 2.0, 2.0;shape-rendering:crispEdges;" transform="matrix(1,0,0,1,0,0)" clip-path="url(#916822750988048clip-1)"/><line x1="612.24" y1="29" x2="612.24" y2="530" style="stroke-width: 0.5;stroke: rgb(204,204,204);stroke-opacity: 1.0;stroke-linejoin: bevel;stroke-dasharray: 2.0, 2.0;shape-rendering:crispEdges;" transform="matrix(1,0,0,1,0,0)" clip-path="url(#916822750988048clip-1)"/><line x1="648.19" y1="29" x2="648.19" y2="530" style="stroke-width: 0.5;stroke: rgb(204,204,204);stroke-opacity: 1.0;stroke-linejoin: bevel;stroke-dasharray: 2.0, 2.0;shape-rendering:crispEdges;" transform="matrix(1,0,0,1,0,0)" clip-path="url(#916822750988048clip-1)"/><line x1="684.14" y1="29" x2="684.14" y2="530" style="stroke-width: 0.5;stroke: rgb(204,204,204);stroke-opacity: 1.0;stroke-linejoin: bevel;stroke-dasharray: 2.0, 2.0;shape-rendering:crispEdges;" transform="matrix(1,0,0,1,0,0)" clip-path="url(#916822750988048clip-1)"/><line x1="720.1" y1="29" x2="720.1" y2="530" style="stroke-width: 0.5;stroke: rgb(204,204,204);stroke-opacity: 1.0;stroke-linejoin: bevel;stroke-dasharray: 2.0, 2.0;shape-rendering:crispEdges;" transform="matrix(1,0,0,1,0,0)" clip-path="url(#916822750988048clip-1)"/><line x1="756.05" y1="29" x2="756.05" y2="530" style="stroke-width: 0.5;stroke: rgb(204,204,204);stroke-opacity: 1.0;stroke-linejoin: bevel;stroke-dasharray: 2.0, 2.0;shape-rendering:crispEdges;" transform="matrix(1,0,0,1,0,0)" clip-path="url(#916822750988048clip-1)"/><line x1="792" y1="29" x2="792" y2="530" style="stroke-width: 0.5;stroke: rgb(204,204,204);stroke-opacity: 1.0;stroke-linejoin: bevel;stroke-dasharray: 2.0, 2.0;shape-rendering:crispEdges;" transform="matrix(1,0,0,1,0,0)" clip-path="url(#916822750988048clip-1)"/><line x1="37" y1="530" x2="792" y2="530" style="stroke-width: 0.5;stroke: rgb(204,204,204);stroke-opacity: 1.0;stroke-linejoin: bevel;stroke-dasharray: 2.0, 2.0;shape-rendering:crispEdges;" transform="matrix(1,0,0,1,0,0)" clip-path="url(#916822750988048clip-1)"/><line x1="37" y1="501.78" x2="792" y2="501.78" style="stroke-width: 0.5;stroke: rgb(204,204,204);stroke-opacity: 1.0;stroke-linejoin: bevel;stroke-dasharray: 2.0, 2.0;shape-rendering:crispEdges;" transform="matrix(1,0,0,1,0,0)" clip-path="url(#916822750988048clip-1)"/><line x1="37" y1="473.56" x2="792" y2="473.56" style="stroke-width: 0.5;stroke: rgb(204,204,204);stroke-opacity: 1.0;stroke-linejoin: bevel;stroke-dasharray: 2.0, 2.0;shape-rendering:crispEdges;" transform="matrix(1,0,0,1,0,0)" clip-path="url(#916822750988048clip-1)"/><line x1="37" y1="445.34" x2="792" y2="445.34" style="stroke-width: 0.5;stroke: rgb(204,204,204);stroke-opacity: 1.0;stroke-linejoin: bevel;stroke-dasharray: 2.0, 2.0;shape-rendering:crispEdges;" transform="matrix(1,0,0,1,0,0)" clip-path="url(#916822750988048clip-1)"/><line x1="37" y1="417.12" x2="792" y2="417.12" style="stroke-width: 0.5;stroke: rgb(204,204,204);stroke-opacity: 1.0;stroke-linejoin: bevel;stroke-dasharray: 2.0, 2.0;shape-rendering:crispEdges;" transform="matrix(1,0,0,1,0,0)" clip-path="url(#916822750988048clip-1)"/><line x1="37" y1="388.9" x2="792" y2="388.9" style="stroke-width: 0.5;stroke: rgb(204,204,204);stroke-opacity: 1.0;stroke-linejoin: bevel;stroke-dasharray: 2.0, 2.0;shape-rendering:crispEdges;" transform="matrix(1,0,0,1,0,0)" clip-path="url(#916822750988048clip-1)"/><line x1="37" y1="360.69" x2="792" y2="360.69" style="stroke-width: 0.5;stroke: rgb(204,204,204);stroke-opacity: 1.0;stroke-linejoin: bevel;stroke-dasharray: 2.0, 2.0;shape-rendering:crispEdges;" transform="matrix(1,0,0,1,0,0)" clip-path="url(#916822750988048clip-1)"/><line x1="37" y1="332.47" x2="792" y2="332.47" style="stroke-width: 0.5;stroke: rgb(204,204,204);stroke-opacity: 1.0;stroke-linejoin: bevel;stroke-dasharray: 2.0, 2.0;shape-rendering:crispEdges;" transform="matrix(1,0,0,1,0,0)" clip-path="url(#916822750988048clip-1)"/><line x1="37" y1="304.25" x2="792" y2="304.25" style="stroke-width: 0.5;stroke: rgb(204,204,204);stroke-opacity: 1.0;stroke-linejoin: bevel;stroke-dasharray: 2.0, 2.0;shape-rendering:crispEdges;" transform="matrix(1,0,0,1,0,0)" clip-path="url(#916822750988048clip-1)"/><line x1="37" y1="276.03" x2="792" y2="276.03" style="stroke-width: 0.5;stroke: rgb(204,204,204);stroke-opacity: 1.0;stroke-linejoin: bevel;stroke-dasharray: 2.0, 2.0;shape-rendering:crispEdges;" transform="matrix(1,0,0,1,0,0)" clip-path="url(#916822750988048clip-1)"/><line x1="37" y1="247.81" x2="792" y2="247.81" style="stroke-width: 0.5;stroke: rgb(204,204,204);stroke-opacity: 1.0;stroke-linejoin: bevel;stroke-dasharray: 2.0, 2.0;shape-rendering:crispEdges;" transform="matrix(1,0,0,1,0,0)" clip-path="url(#916822750988048clip-1)"/><line x1="37" y1="219.59" x2="792" y2="219.59" style="stroke-width: 0.5;stroke: rgb(204,204,204);stroke-opacity: 1.0;stroke-linejoin: bevel;stroke-dasharray: 2.0, 2.0;shape-rendering:crispEdges;" transform="matrix(1,0,0,1,0,0)" clip-path="url(#916822750988048clip-1)"/><line x1="37" y1="191.37" x2="792" y2="191.37" style="stroke-width: 0.5;stroke: rgb(204,204,204);stroke-opacity: 1.0;stroke-linejoin: bevel;stroke-dasharray: 2.0, 2.0;shape-rendering:crispEdges;" transform="matrix(1,0,0,1,0,0)" clip-path="url(#916822750988048clip-1)"/><line x1="37" y1="163.15" x2="792" y2="163.15" style="stroke-width: 0.5;stroke: rgb(204,204,204);stroke-opacity: 1.0;stroke-linejoin: bevel;stroke-dasharray: 2.0, 2.0;shape-rendering:crispEdges;" transform="matrix(1,0,0,1,0,0)" clip-path="url(#916822750988048clip-1)"/><line x1="37" y1="134.93" x2="792" y2="134.93" style="stroke-width: 0.5;stroke: rgb(204,204,204);stroke-opacity: 1.0;stroke-linejoin: bevel;stroke-dasharray: 2.0, 2.0;shape-rendering:crispEdges;" transform="matrix(1,0,0,1,0,0)" clip-path="url(#916822750988048clip-1)"/><line x1="37" y1="106.71" x2="792" y2="106.71" style="stroke-width: 0.5;stroke: rgb(204,204,204);stroke-opacity: 1.0;stroke-linejoin: bevel;stroke-dasharray: 2.0, 2.0;shape-rendering:crispEdges;" transform="matrix(1,0,0,1,0,0)" clip-path="url(#916822750988048clip-1)"/><line x1="37" y1="78.49" x2="792" y2="78.49" style="stroke-width: 0.5;stroke: rgb(204,204,204);stroke-opacity: 1.0;stroke-linejoin: bevel;stroke-dasharray: 2.0, 2.0;shape-rendering:crispEdges;" transform="matrix(1,0,0,1,0,0)" clip-path="url(#916822750988048clip-1)"/><line x1="37" y1="50.28" x2="792" y2="50.28" style="stroke-width: 0.5;stroke: rgb(204,204,204);stroke-opacity: 1.0;stroke-linejoin: bevel;stroke-dasharray: 2.0, 2.0;shape-rendering:crispEdges;" transform="matrix(1,0,0,1,0,0)" clip-path="url(#916822750988048clip-1)"/><line x1="37" y1="466.93" x2="108.9" y2="451.46" style="stroke-width: 3.0;stroke: rgb(69,230,69);stroke-opacity: 0.8;stroke-linecap: square;shape-rendering:geometricPrecision;" transform="matrix(1,0,0,1,0,0)" clip-path="url(#916822750988048clip-1)"/><line x1="108.9" y1="451.46" x2="180.81" y2="467.12" style="stroke-width: 3.0;stroke: rgb(69,230,69);stroke-opacity: 0.8;stroke-linecap: square;shape-rendering:geometricPrecision;" transform="matrix(1,0,0,1,0,0)" clip-path="url(#916822750988048clip-1)"/><line x1="180.81" y1="467.12" x2="252.71" y2="471.07" style="stroke-width: 3.0;stroke: rgb(69,230,69);stroke-opacity: 0.8;stroke-linecap: square;shape-rendering:geometricPrecision;" transform="matrix(1,0,0,1,0,0)" clip-path="url(#916822750988048clip-1)"/><line x1="252.71" y1="471.07" x2="324.62" y2="475.77" style="stroke-width: 3.0;stroke: rgb(69,230,69);stroke-opacity: 0.8;stroke-linecap: square;shape-rendering:geometricPrecision;" transform="matrix(1,0,0,1,0,0)" clip-path="url(#916822750988048clip-1)"/><line x1="324.62" y1="475.77" x2="396.52" y2="471.29" style="stroke-width: 3.0;stroke: rgb(69,230,69);stroke-opacity: 0.8;stroke-linecap: square;shape-rendering:geometricPrecision;" transform="matrix(1,0,0,1,0,0)" clip-path="url(#916822750988048clip-1)"/><line x1="396.52" y1="471.29" x2="468.43" y2="481.78" style="stroke-width: 3.0;stroke: rgb(69,230,69);stroke-opacity: 0.8;stroke-linecap: square;shape-rendering:geometricPrecision;" transform="matrix(1,0,0,1,0,0)" clip-path="url(#916822750988048clip-1)"/><line x1="468.43" y1="481.78" x2="540.33" y2="481.42" style="stroke-width: 3.0;stroke: rgb(69,230,69);stroke-opacity: 0.8;stroke-linecap: square;shape-rendering:geometricPrecision;" transform="matrix(1,0,0,1,0,0)" clip-path="url(#916822750988048clip-1)"/><line x1="540.33" y1="481.42" x2="612.24" y2="479.04" style="stroke-width: 3.0;stroke: rgb(69,230,69);stroke-opacity: 0.8;stroke-linecap: square;shape-rendering:geometricPrecision;" transform="matrix(1,0,0,1,0,0)" clip-path="url(#916822750988048clip-1)"/><line x1="612.24" y1="479.04" x2="684.14" y2="466.26" style="stroke-width: 3.0;stroke: rgb(69,230,69);stroke-opacity: 0.8;stroke-linecap: square;shape-rendering:geometricPrecision;" transform="matrix(1,0,0,1,0,0)" clip-path="url(#916822750988048clip-1)"/><line x1="684.14" y1="466.26" x2="756.05" y2="478.19" style="stroke-width: 3.0;stroke: rgb(69,230,69);stroke-opacity: 0.8;stroke-linecap: square;shape-rendering:geometricPrecision;" transform="matrix(1,0,0,1,0,0)" clip-path="url(#916822750988048clip-1)"/><line x1="37" y1="527.51" x2="108.9" y2="457.03" style="stroke-width: 3.0;stroke: rgb(230,69,69);stroke-opacity: 0.8;stroke-linecap: square;shape-rendering:geometricPrecision;" transform="matrix(1,0,0,1,0,0)" clip-path="url(#916822750988048clip-1)"/><line x1="108.9" y1="457.03" x2="180.81" y2="389.35" style="stroke-width: 3.0;stroke: rgb(230,69,69);stroke-opacity: 0.8;stroke-linecap: square;shape-rendering:geometricPrecision;" transform="matrix(1,0,0,1,0,0)" clip-path="url(#916822750988048clip-1)"/><line x1="180.81" y1="389.35" x2="252.71" y2="330.2" style="stroke-width: 3.0;stroke: rgb(230,69,69);stroke-opacity: 0.8;stroke-linecap: square;shape-rendering:geometricPrecision;" transform="matrix(1,0,0,1,0,0)" clip-path="url(#916822750988048clip-1)"/><line x1="252.71" y1="330.2" x2="324.62" y2="300.59" style="stroke-width: 3.0;stroke: rgb(230,69,69);stroke-opacity: 0.8;stroke-linecap: square;shape-rendering:geometricPrecision;" transform="matrix(1,0,0,1,0,0)" clip-path="url(#916822750988048clip-1)"/><line x1="324.62" y1="300.59" x2="396.52" y2="265.2" style="stroke-width: 3.0;stroke: rgb(230,69,69);stroke-opacity: 0.8;stroke-linecap: square;shape-rendering:geometricPrecision;" transform="matrix(1,0,0,1,0,0)" clip-path="url(#916822750988048clip-1)"/><line x1="396.52" y1="265.2" x2="468.43" y2="206.69" style="stroke-width: 3.0;stroke: rgb(230,69,69);stroke-opacity: 0.8;stroke-linecap: square;shape-rendering:geometricPrecision;" transform="matrix(1,0,0,1,0,0)" clip-path="url(#916822750988048clip-1)"/><line x1="468.43" y1="206.69" x2="540.33" y2="170.68" style="stroke-width: 3.0;stroke: rgb(230,69,69);stroke-opacity: 0.8;stroke-linecap: square;shape-rendering:geometricPrecision;" transform="matrix(1,0,0,1,0,0)" clip-path="url(#916822750988048clip-1)"/><line x1="540.33" y1="170.68" x2="612.24" y2="136.2" style="stroke-width: 3.0;stroke: rgb(230,69,69);stroke-opacity: 0.8;stroke-linecap: square;shape-rendering:geometricPrecision;" transform="matrix(1,0,0,1,0,0)" clip-path="url(#916822750988048clip-1)"/><line x1="612.24" y1="136.2" x2="684.14" y2="84.79" style="stroke-width: 3.0;stroke: rgb(230,69,69);stroke-opacity: 0.8;stroke-linecap: square;shape-rendering:geometricPrecision;" transform="matrix(1,0,0,1,0,0)" clip-path="url(#916822750988048clip-1)"/><line x1="684.14" y1="84.79" x2="756.05" y2="52.86" style="stroke-width: 3.0;stroke: rgb(230,69,69);stroke-opacity: 0.8;stroke-linecap: square;shape-rendering:geometricPrecision;" transform="matrix(1,0,0,1,0,0)" clip-path="url(#916822750988048clip-1)"/></svg>
